#!OML:ASF H:\Dans Jumps\Project 1\Capture day 1\Session 1\subject.ASF
:FULLY-SPECIFIED
:DEGREES
405
root 0.480015 16.1273 0.136357 -1.21668 -0.238671 -0.907351
lowerback 7.08182 0.663217 -0.607754
upperback 3.51254 0.866388 2.21557
thorax -0.390016 0.409398 2.55964
lowerneck -11.2002 -1.00106 -1.25728
upperneck 29.2151 -1.47713 1.13774
head 11.3357 -0.660784 0.446163
rclavicle -8.24956e-015 -1.11319e-014
rhumerus -12.7692 -16.2576 -83.26
rradius 24.5368
rwrist 41.0201
rhand -24.8985 -29.7927
rfingers 7.12502
rthumb 1.60963 -59.7664
lclavicle -8.24956e-015 -1.11319e-014
lhumerus -20.4352 9.17465 88.4517
lradius 9.16602
lwrist 6.9434
lhand -30.3357 -9.11861
lfingers 7.12502
lthumb -3.64168 20.83
rfemur -31.0675 -1.90794 19.6573
rtibia 56.7052
rfoot -22.1843 -1.54783
rtoes 0.311473
lfemur -31.188 7.90136 -17.3465
ltibia 54.4111
lfoot -17.0997 8.36248
ltoes -11.2568
406
root 0.482616 16.2435 0.180616 -0.767219 -0.260622 -0.915375
lowerback 6.78623 0.611265 -0.624106
upperback 3.45132 0.795717 2.21113
thorax -0.286211 0.37355 2.57155
lowerneck -11.2565 -0.972467 -1.19014
upperneck 29.2496 -1.44367 1.10561
head 11.3592 -0.642435 0.426782
rclavicle 5.36719e-015 -1.59028e-015
rhumerus -12.8512 -15.7961 -83.3404
rradius 24.5194
rwrist 41.2614
rhand -24.9283 -29.5181
rfingers 7.12502
rthumb 1.5808 -59.492
lclavicle 5.36719e-015 -1.59028e-015
lhumerus -20.7313 9.40944 88.3933
lradius 9.23115
lwrist 6.51742
lhand -29.487 -8.74031
lfingers 7.12502
lthumb -2.82202 21.2208
rfemur -30.4527 -1.76383 19.6579
rtibia 55.0243
rfoot -21.5889 -1.50513
rtoes 0.755871
lfemur -30.5468 7.735 -17.3741
ltibia 52.692
lfoot -16.5446 8.14891
ltoes -10.7101
407
root 0.48531 16.3589 0.224054 -0.262208 -0.229168 -0.920751
lowerback 6.43919 0.545352 -0.635695
upperback 3.36854 0.706955 2.20609
thorax -0.174928 0.328823 2.58112
lowerneck -11.3088 -0.950231 -1.13668
upperneck 29.2961 -1.41812 1.07988
head 11.3868 -0.628337 0.411141
rclavicle -8.05078e-015 5.96354e-015
rhumerus -13.0026 -15.4469 -83.3805
rradius 24.475
rwrist 41.5952
rhand -24.9682 -29.284
rfingers 7.12502
rthumb 1.54227 -59.2581
lclavicle -8.05078e-015 5.96354e-015
lhumerus -21.0422 9.62655 88.3303
lradius 9.19108
lwrist 5.29701
lhand -28.7975 -8.29776
lfingers 7.12502
lthumb -2.15614 21.6711
rfemur -29.8907 -1.66744 19.6513
rtibia 53.3212
rfoot -20.9711 -1.46685
rtoes 1.1648
lfemur -29.9638 7.53977 -17.4198
ltibia 50.9344
lfoot -15.9752 7.91871
ltoes -10.1616
408
root 0.488036 16.4725 0.266927 0.283519 -0.156034 -0.912182
lowerback 6.05348 0.47175 -0.65182
upperback 3.26784 0.607881 2.19662
thorax -0.0598555 0.279024 2.58875
lowerneck -11.3521 -0.933864 -1.09533
upperneck 29.3462 -1.40005 1.06057
head 11.4142 -0.61813 0.399046
rclavicle -1.35174e-014 -2.22639e-014
rhumerus -13.2164 -15.2701 -83.3791
rradius 24.4083
rwrist 41.9881
rhand -24.971 -29.1301
rfingers 7.12502
rthumb 1.53953 -59.1043
lclavicle -1.35174e-014 -2.22639e-014
lhumerus -21.3658 9.82082 88.2664
lradius 9.06407
lwrist 3.42089
lhand -28.2342 -7.709
lfingers 7.12502
lthumb -1.61207 22.2647
rfemur -29.3759 -1.62018 19.6272
rtibia 51.6154
rfoot -20.3429 -1.42518
rtoes 1.53219
lfemur -29.4263 7.33478 -17.4899
ltibia 49.1541
lfoot -15.4101 7.66019
ltoes -9.60193
409
root 0.490664 16.5829 0.309661 0.852141 -0.0478619 -0.889885
lowerback 5.63825 0.394008 -0.671164
upperback 3.15746 0.503251 2.18161
thorax 0.0622715 0.226461 2.59202
lowerneck -11.3894 -0.922366 -1.06747
upperneck 29.3949 -1.38919 1.05321
head 11.4403 -0.611158 0.392782
rclavicle -4.27387e-015 -3.97569e-015
rhumerus -13.4868 -15.2815 -83.3387
rradius 24.3354
rwrist 42.3685
rhand -24.9333 -29.0583
rfingers 7.12502
rthumb 1.57599 -59.0322
lclavicle -4.27387e-015 -3.97569e-015
lhumerus -21.6827 9.98864 88.206
lradius 8.87174
lwrist 1.13375
lhand -27.7321 -7.01852
lfingers 7.12502
lthumb -1.12718 22.9582
rfemur -28.8945 -1.62507 19.5878
rtibia 49.9231
rfoot -19.7165 -1.37253
rtoes 1.91893
lfemur -28.9176 7.13336 -17.5778
ltibia 47.3664
lfoot -14.8682 7.35973
ltoes -8.99837
410
root 0.49324 16.6886 0.352594 1.43121 0.0750677 -0.861692
lowerback 5.20565 0.31803 -0.687611
upperback 3.04058 0.401259 2.1644
thorax 0.187626 0.175281 2.59032
lowerneck -11.4187 -0.915489 -1.05721
upperneck 29.4374 -1.38392 1.05709
head 11.4627 -0.607254 0.393009
rclavicle 1.59028e-015 1.98785e-015
rhumerus -13.8048 -15.4671 -83.2605
rradius 24.257
rwrist 42.6638
rhand -24.8681 -29.059
rfingers 7.12502
rthumb 1.639 -59.0325
lclavicle 1.59028e-015 1.98785e-015
lhumerus -21.985 10.1329 88.15
lradius 8.64446
lwrist -1.24423
lhand -27.203 -6.19741
lfingers 7.12502
lthumb -0.616147 23.7814
rfemur -28.4432 -1.6756 19.5453
rtibia 48.2597
rfoot -19.0997 -1.30429
rtoes 2.30861
lfemur -28.4275 6.95918 -17.6694
ltibia 45.5871
lfoot -14.3584 7.01283
ltoes -8.36716
411
root 0.495807 16.7895 0.396012 2.01129 0.204003 -0.826845
lowerback 4.76786 0.245495 -0.702816
upperback 2.91761 0.304097 2.14546
thorax 0.309717 0.126605 2.58494
lowerneck -11.4418 -0.91233 -1.06226
upperneck 29.4729 -1.38195 1.06708
head 11.4813 -0.605764 0.397743
rclavicle -2.48481e-015 1.07344e-014
rhumerus -14.1686 -15.7999 -83.1456
rradius 24.1814
rwrist 42.8263
rhand -24.7768 -29.1079
rfingers 7.12502
rthumb 1.72711 -59.0807
lclavicle -2.48481e-015 1.07344e-014
lhumerus -22.2768 10.2592 88.0997
lradius 8.42578
lwrist -3.37689
lhand -26.7143 -5.56132
lfingers 7.12502
lthumb -0.144163 24.4184
rfemur -28.0177 -1.77232 19.5009
rtibia 46.6366
rfoot -18.4999 -1.21277
rtoes 2.73767
lfemur -27.946 6.82156 -17.7634
ltibia 43.8265
lfoot -13.8906 6.61814
ltoes -7.70778
